<?xml version="1.0"?>
<svg xmlns="http://www.w3.org/2000/svg" xmlns:xlink="http://www.w3.org/1999/xlink" xmlns:svgjs="http://svgjs.com/svgjs" version="1.1" width="512" height="512" x="0" y="0" viewBox="0 0 512.029 512.029" style="enable-background:new 0 0 512 512" xml:space="preserve" class=""><g><g xmlns="http://www.w3.org/2000/svg"><path d="m175.519 171.789c1.312 34.932 2.757 72.713 4.103 107.7 1.584 41.221 35.14 73.511 76.392 73.511s74.808-32.29 76.393-73.511l4.143-107.691c-52.92-11.433-108.113-11.435-161.031-.009z" fill="#66bb6a" data-original="#000000" style="" class=""/><path d="m199.707 366.906c.1.063.248-.636-13.739 37.827l16.601 16.61c1.089 1.052 20.82 19.657 53.444 19.657 32.867 0 53.197-19.41 53.394-19.606l16.654-16.663c-14.317-39.38-13.639-37.887-13.74-37.821-34.306 21.444-78.235 21.484-112.614-.004z" fill="#66bb6a" data-original="#000000" style="" class=""/><path d="m256.014 471c-45.688 0-73.447-27.234-74.606-28.394l-14.394-14.401v83.823c40.35-.004 97.376-.017 178-.024v-83.799l-14.391 14.398c-1.162 1.163-28.922 28.397-74.609 28.397z" fill="#66bb6a" data-original="#000000" style="" class=""/><path d="m149.343 272.847c-1.127-29.632-3.564-95.366-4.233-111.128-.163-8.119 3.967-14.544 11.448-16.316 65.132-16.251 133.969-16.235 199.093.046 6.887 1.722 11.612 7.663 11.352 15.128-.321 8.346-4.287 111.466-4.318 112.271 156.112-44.869 141.148-168.175-29.953-200.799l-.001-.014c-49.285-9.406-104.471-9.354-153.433-.011-.072.738-65.942 9.935-107.732 45.615-55.446 47.337-38.696 121.732 77.777 155.208z" fill="#66bb6a" data-original="#000000" style="" class=""/><path d="m329.689 41.028c-2.387-24.37-22.222-41.028-44.826-41.028h-57.699c-22.606 0-42.44 16.667-44.827 41.029 47.701-8.035 99.587-8.046 147.352-.001z" fill="#66bb6a" data-original="#000000" style="" class=""/><path d="m447.112 462.562c-6.427-26.424-30.33-45.562-58.228-45.562h-13.87v95.002c20.294-.001 41.919-.002 65-.002 9.521 0 16.763-8.87 14.617-18.326-.277-1.214.892 3.64-7.519-31.112z" fill="#66bb6a" data-original="#000000" style="" class=""/><path d="m137.014 417h-13.87c-27.873 0-51.796 19.115-58.229 45.562-7.942 32.818-7.901 31.911-7.901 34.438 0 6.759 4.644 12.924 11.472 14.579 1.488.364-6.094.445 68.528.45z" fill="#66bb6a" data-original="#000000" style="" class=""/></g></g></svg>
